<svg xmlns="http://www.w3.org/2000/svg" viewBox="0 0 192 192" width="192" height="192">
  <defs>
    <linearGradient id="bg" x1="0%" y1="0%" x2="100%" y2="100%">
      <stop offset="0%" style="stop-color:#1e1e1e;stop-opacity:1" />
      <stop offset="100%" style="stop-color:#2563eb;stop-opacity:1" />
    </linearGradient>
  </defs>
  <rect width="192" height="192" rx="24" fill="url(#bg)"/>
  <g transform="translate(96, 96)">
    <!-- Newspaper icon -->
    <rect x="-32" y="-40" width="64" height="80" rx="4" fill="white" opacity="0.9"/>
    <rect x="-28" y="-36" width="56" height="8" fill="#1e1e1e" rx="2"/>
    <rect x="-28" y="-24" width="40" height="4" fill="#1e1e1e" rx="2"/>
    <rect x="-28" y="-16" width="48" height="4" fill="#1e1e1e" rx="2"/>
    <rect x="-28" y="-8" width="36" height="4" fill="#1e1e1e" rx="2"/>
    <rect x="-28" y="0" width="44" height="4" fill="#1e1e1e" rx="2"/>
    <rect x="-28" y="8" width="38" height="4" fill="#1e1e1e" rx="2"/>
    <rect x="-28" y="16" width="42" height="4" fill="#1e1e1e" rx="2"/>
    <rect x="-28" y="24" width="35" height="4" fill="#1e1e1e" rx="2"/>
    <rect x="-28" y="32" width="50" height="4" fill="#1e1e1e" rx="2"/>
    <!-- News lines -->
    <line x1="-20" y1="-30" x2="20" y2="-30" stroke="#2563eb" stroke-width="2"/>
    <line x1="-20" y1="-22" x2="20" y2="-22" stroke="#2563eb" stroke-width="2"/>
  </g>
</svg>